<?xml version="1.0" standalone="no"?>
<!DOCTYPE svg PUBLIC "-//W3C//DTD SVG 20010904//EN"
 "http://www.w3.org/TR/2001/REC-SVG-20010904/DTD/svg10.dtd">
<svg version="1.0" xmlns="http://www.w3.org/2000/svg"
 width="260.000000pt" height="260.000000pt" viewBox="0 0 260.000000 260.000000"
 preserveAspectRatio="xMidYMid meet">
<metadata>
Created by potrace 1.11, written by Peter Selinger 2001-2013
</metadata>
<g transform="translate(0.000000,260.000000) scale(0.100000,-0.100000)"
fill="#000000" stroke="none">
<path d="M356 2230 c-1 -3 -4 -72 -5 -153 l-2 -148 73 2 73 2 2 -399 c2 -219
3 -412 3 -429 -1 -16 -2 -180 -4 -363 -1 -186 1 -335 6 -338 11 -7 276 -7 287
0 4 3 8 24 9 48 1 24 5 66 9 93 5 39 6 286 2 560 0 11 0 112 1 225 1 113 1
291 0 397 -1 106 1 196 4 201 5 9 121 7 203 -3 59 -7 117 -46 149 -101 26 -44
27 -55 31 -198 2 -83 4 -158 3 -166 -2 -21 -1 -288 1 -506 1 -100 -1 -186 -5
-192 -3 -6 -2 -13 4 -17 6 -4 7 -11 4 -17 -8 -12 -7 -318 0 -325 10 -10 288
-5 295 5 3 5 5 169 4 364 -1 194 -2 448 -2 563 0 116 0 257 0 315 0 116 9 155
48 211 29 41 75 74 91 64 6 -3 10 -2 10 2 0 5 47 10 104 11 l104 2 6 -28 c5
-24 9 -372 8 -732 -1 -126 3 -239 11 -295 2 -16 0 -38 -5 -47 -5 -10 -4 -19 2
-23 6 -4 7 -12 3 -18 -4 -6 -6 -36 -4 -67 4 -94 3 -132 -2 -223 -5 -64 -3 -89
6 -92 20 -7 256 -12 265 -6 12 8 4 1792 -8 1804 -10 10 -446 15 -510 6 -72
-10 -184 -61 -239 -109 -18 -17 -36 -30 -38 -30 -3 0 -31 20 -64 46 -63 48
-126 80 -200 99 -46 12 -727 17 -733 5z m1639 -1110 c-3 -5 -11 -10 -16 -10
-6 0 -7 5 -4 10 3 6 11 10 16 10 6 0 7 -4 4 -10z"/>
</g>
</svg>
